<?xml version="1.0" encoding="UTF-8" standalone="no"?>
<svg
   xmlns:dc="http://purl.org/dc/elements/1.1/"
   xmlns:cc="http://creativecommons.org/ns#"
   xmlns:rdf="http://www.w3.org/1999/02/22-rdf-syntax-ns#"
   xmlns:svg="http://www.w3.org/2000/svg"
   xmlns="http://www.w3.org/2000/svg"
   xmlns:xlink="http://www.w3.org/1999/xlink"
   xmlns:sodipodi="http://sodipodi.sourceforge.net/DTD/sodipodi-0.dtd"
   xmlns:inkscape="http://www.inkscape.org/namespaces/inkscape"
   version="1.1"
   id="svg2"
   width="128"
   height="128"
   viewBox="0 0 128 128"
   sodipodi:docname="0cc-famitracker.svg"
   inkscape:version="1.0.2 (e86c870879, 2021-01-15)">
  <metadata
     id="metadata8">
    <rdf:RDF>
      <cc:Work
         rdf:about="">
        <dc:format>image/svg+xml</dc:format>
        <dc:type
           rdf:resource="http://purl.org/dc/dcmitype/StillImage" />
        <dc:title></dc:title>
      </cc:Work>
    </rdf:RDF>
  </metadata>
  <defs
     id="defs6">
    <linearGradient
       inkscape:collect="always"
       id="linearGradient833">
      <stop
         style="stop-color:#be59f5;stop-opacity:1"
         offset="0"
         id="stop829" />
      <stop
         style="stop-color:#ee45d2;stop-opacity:1"
         offset="1"
         id="stop831" />
    </linearGradient>
    <linearGradient
       inkscape:collect="always"
       id="linearGradient823">
      <stop
         style="stop-color:#ad22ef;stop-opacity:1"
         offset="0"
         id="stop819" />
      <stop
         style="stop-color:#f164da;stop-opacity:1"
         offset="1"
         id="stop821" />
    </linearGradient>
    <linearGradient
       inkscape:collect="always"
       xlink:href="#linearGradient823"
       id="linearGradient825"
       x1="-741.83197"
       y1="959.04749"
       x2="-741.83197"
       y2="93.836403"
       gradientUnits="userSpaceOnUse"
       gradientTransform="matrix(0.13667801,0,0,0.13667801,162.31231,-5.989337)" />
    <linearGradient
       inkscape:collect="always"
       xlink:href="#linearGradient833"
       id="linearGradient835"
       x1="-738.76385"
       y1="931.43433"
       x2="-738.76385"
       y2="152.13077"
       gradientUnits="userSpaceOnUse"
       gradientTransform="matrix(0.13667801,0,0,0.13667801,162.31231,-5.989337)" />
    <linearGradient
       inkscape:collect="always"
       xlink:href="#linearGradient930"
       id="linearGradient932"
       x1="12.604839"
       y1="14.846661"
       x2="17.850893"
       y2="23.603825"
       gradientUnits="userSpaceOnUse"
       gradientTransform="matrix(3.7795276,0,0,3.7795276,-0.99802056,3.4649474)" />
    <linearGradient
       inkscape:collect="always"
       id="linearGradient930">
      <stop
         style="stop-color:#ffffff;stop-opacity:1;"
         offset="0"
         id="stop926" />
      <stop
         style="stop-color:#f0d7ff;stop-opacity:1"
         offset="1"
         id="stop928" />
    </linearGradient>
  </defs>
  <sodipodi:namedview
     pagecolor="#ffffff"
     bordercolor="#666666"
     borderopacity="1"
     objecttolerance="10"
     gridtolerance="10"
     guidetolerance="10"
     inkscape:pageopacity="0"
     inkscape:pageshadow="2"
     inkscape:window-width="1920"
     inkscape:window-height="1028"
     id="namedview4"
     showgrid="false"
     inkscape:zoom="1.84375"
     inkscape:cx="-80.571406"
     inkscape:cy="50.708585"
     inkscape:window-x="0"
     inkscape:window-y="24"
     inkscape:window-maximized="1"
     inkscape:current-layer="svg2"
     inkscape:document-rotation="0" />
  <circle
     style="opacity:1;fill:url(#linearGradient825);fill-opacity:1;stroke:none;stroke-width:0.78699166;stroke-linecap:round;stroke-linejoin:round;stroke-miterlimit:4;stroke-dasharray:none;stroke-opacity:1"
     id="path817"
     cx="63.591888"
     cy="64.286316"
     r="61.380009" />
  <circle
     r="55.089832"
     cy="64.286316"
     cx="63.591888"
     id="circle827"
     style="opacity:1;fill:url(#linearGradient835);fill-opacity:1;stroke:none;stroke-width:0.70634133;stroke-linecap:round;stroke-linejoin:round;stroke-miterlimit:4;stroke-dasharray:none;stroke-opacity:1" />
  <g
     id="g924"
     style="opacity:0.440563"
     transform="matrix(3.7795276,0,0,3.7795276,-0.99802056,3.4649474)">
    <path
       style="fill:#6b00d4;fill-opacity:0.309001;stroke-width:0.411176"
       d="m 10.890981,9.676859 c -0.9111662,0 -1.6447052,0.733537 -1.6447052,1.644705 v 3.700584 c 0,0.911168 0.733539,1.644704 1.6447052,1.644704 h 1.644705 c 0.911166,0 1.644705,-0.733536 1.644705,-1.644704 v -3.700584 c 0,-0.911168 -0.733539,-1.644705 -1.644705,-1.644705 z m 5.756465,0 c -0.911166,0 -1.644703,0.733537 -1.644703,1.644705 v 3.700584 c 0,0.911168 0.733537,1.644704 1.644703,1.644704 h 1.644704 c 0.776262,0 1.419441,-0.534142 1.594111,-1.25521 l -1.232727,-0.528427 c -0.112352,0.32011 -0.413112,0.550109 -0.77256,0.550109 h -0.822352 c -0.455582,0 -0.822353,-0.366769 -0.822353,-0.822353 v -2.87823 c 0,-0.455585 0.366771,-0.822353 0.822353,-0.822353 h 0.822352 c 0.359448,0 0.660201,0.229992 0.77256,0.550108 L 19.886261,10.93207 C 19.711589,10.211001 19.068412,9.676859 18.29215,9.676859 Z m 5.756463,0 c -0.911164,0 -1.644702,0.733537 -1.644702,1.644705 v 3.700584 c 0,0.911168 0.733538,1.644704 1.644702,1.644704 h 1.644705 c 0.776262,0 1.419441,-0.534142 1.594112,-1.25521 L 24.41,14.883215 c -0.112352,0.32011 -0.413115,0.550109 -0.772562,0.550109 h -0.82235 c -0.455584,0 -0.822355,-0.366769 -0.822355,-0.822353 v -2.87823 c 0,-0.455585 0.366771,-0.822353 0.822355,-0.822353 h 0.82235 c 0.359447,0 0.660201,0.229992 0.772562,0.550108 L 25.642726,10.93207 C 25.468053,10.211001 24.824876,9.676859 24.048614,9.676859 Z m -11.101752,1.233529 h 0.822353 c 0.455584,0 0.822352,0.366768 0.822352,0.822353 v 2.87823 c 0,0.455584 -0.366768,0.822353 -0.822352,0.822353 h -0.822353 c -0.455583,0 -0.822352,-0.366769 -0.822352,-0.822353 v -2.87823 c 0,-0.455585 0.366769,-0.822353 0.822352,-0.822353 z m 2.467058,6.989993 c -0.911168,0 -1.644705,0.733537 -1.644705,1.644705 v 5.345287 h 1.233528 v -3.289409 h 2.467055 v -1.233527 h -2.467055 v -1.233528 h 3.700584 v -1.233528 z m 4.522935,0 v 1.233528 h 1.644705 v 5.756464 h 1.233529 v -5.756464 h 1.644704 v -1.233528 z"
       id="path918" />
    <path
       style="fill:#6b00d4;fill-opacity:0.309001;stroke-width:0.411176"
       d="m 11.506435,9.95294 c -0.911166,0 -1.6447052,0.733537 -1.6447052,1.644705 v 3.700584 c 0,0.911168 0.7335392,1.644704 1.6447052,1.644704 h 1.644705 c 0.911166,0 1.644705,-0.733536 1.644705,-1.644704 v -3.700584 c 0,-0.911168 -0.733539,-1.644705 -1.644705,-1.644705 z m 5.756465,0 c -0.911166,0 -1.644703,0.733537 -1.644703,1.644705 v 3.700584 c 0,0.911168 0.733537,1.644704 1.644703,1.644704 h 1.644704 c 0.776262,0 1.419441,-0.534142 1.594111,-1.25521 l -1.232727,-0.528427 c -0.112352,0.32011 -0.413112,0.550109 -0.77256,0.550109 h -0.822352 c -0.455582,0 -0.822353,-0.366769 -0.822353,-0.822353 v -2.87823 c 0,-0.455585 0.366771,-0.822353 0.822353,-0.822353 h 0.822352 c 0.359448,0 0.660201,0.229992 0.77256,0.550108 l 1.232727,-0.528426 C 20.327043,10.487082 19.683866,9.95294 18.907604,9.95294 Z m 5.756463,0 c -0.911164,0 -1.644702,0.733537 -1.644702,1.644705 v 3.700584 c 0,0.911168 0.733538,1.644704 1.644702,1.644704 h 1.644705 c 0.776262,0 1.419441,-0.534142 1.594112,-1.25521 l -1.232726,-0.528427 c -0.112352,0.32011 -0.413115,0.550109 -0.772562,0.550109 h -0.82235 c -0.455584,0 -0.822355,-0.366769 -0.822355,-0.822353 v -2.87823 c 0,-0.455585 0.366771,-0.822353 0.822355,-0.822353 h 0.82235 c 0.359447,0 0.660201,0.229992 0.772562,0.550108 L 26.25818,11.208151 C 26.083507,10.487082 25.44033,9.95294 24.664068,9.95294 Z m -11.101752,1.233529 h 0.822353 c 0.455584,0 0.822352,0.366768 0.822352,0.822353 v 2.87823 c 0,0.455584 -0.366768,0.822353 -0.822352,0.822353 h -0.822353 c -0.455583,0 -0.822352,-0.366769 -0.822352,-0.822353 v -2.87823 c 0,-0.455585 0.366769,-0.822353 0.822352,-0.822353 z m 2.467058,6.989993 c -0.911168,0 -1.644705,0.733537 -1.644705,1.644705 v 5.345287 h 1.233528 v -3.289409 h 2.467055 V 20.643518 H 13.973492 V 19.40999 h 3.700584 v -1.233528 z m 4.522935,0 v 1.233528 h 1.644705 v 5.756464 h 1.233529 V 19.40999 h 1.644704 v -1.233528 z"
       id="path920" />
  </g>
  <path
     style="fill:url(#linearGradient932);fill-opacity:1;stroke-width:1.55405"
     d="m 37.831745,39.085155 c -3.443775,0 -6.216208,2.772423 -6.216208,6.216207 v 13.98646 c 0,3.443784 2.772433,6.216204 6.216208,6.216204 h 6.216208 c 3.443777,0 6.216208,-2.77242 6.216208,-6.216204 v -13.98646 c 0,-3.443784 -2.772431,-6.216207 -6.216208,-6.216207 z m 21.756719,0 c -3.443777,0 -6.216201,2.772423 -6.216201,6.216207 v 13.98646 c 0,3.443784 2.772424,6.216204 6.216201,6.216204 h 6.216204 c 2.933904,0 5.364816,-2.018805 6.024986,-4.744101 L 67.170529,58.76272 c -0.424638,1.209865 -1.561368,2.079153 -2.919912,2.079153 h -3.108102 c -1.721885,0 -3.108106,-1.386214 -3.108106,-3.108106 v -10.87835 c 0,-1.721896 1.386221,-3.108106 3.108106,-3.108106 h 3.108102 c 1.358544,0 2.495248,0.869261 2.919912,2.079149 l 4.659125,-1.997201 c -0.660177,-2.725301 -3.091082,-4.744104 -6.024986,-4.744104 z m 21.756711,0 c -3.44377,0 -6.216197,2.772423 -6.216197,6.216207 v 13.98646 c 0,3.443784 2.772427,6.216204 6.216197,6.216204 h 6.216207 c 2.933904,0 5.364817,-2.018805 6.024991,-4.744101 L 88.927251,58.76272 c -0.424638,1.209865 -1.56138,2.079153 -2.91992,2.079153 h -3.108094 c -1.721892,0 -3.108113,-1.386214 -3.108113,-3.108106 v -10.87835 c 0,-1.721896 1.386221,-3.108106 3.108113,-3.108106 h 3.108094 c 1.35854,0 2.495248,0.869261 2.91992,2.079149 l 4.659122,-1.997201 c -0.660182,-2.725301 -3.091087,-4.744104 -6.024991,-4.744104 z m -41.959379,4.662156 h 3.108106 c 1.721893,0 3.108102,1.38621 3.108102,3.108106 v 10.87835 c 0,1.721892 -1.386209,3.108106 -3.108102,3.108106 h -3.108106 c -1.721888,0 -3.108102,-1.386214 -3.108102,-3.108106 v -10.87835 c 0,-1.721896 1.386214,-3.108106 3.108102,-3.108106 z m 9.324314,26.418872 c -3.443784,0 -6.216208,2.772423 -6.216208,6.216208 V 96.58505 h 4.662153 V 84.152638 h 9.324303 v -4.662149 h -9.324303 v -4.662153 h 13.98646 v -4.662153 z m 17.094558,0 v 4.662153 h 6.216208 V 96.58505 h 4.662157 V 74.828336 h 6.216204 v -4.662153 z"
     id="path10" />
</svg>
