<?xml version="1.0" encoding="UTF-8" standalone="no"?>
<svg
   xmlns:dc="http://purl.org/dc/elements/1.1/"
   xmlns:cc="http://creativecommons.org/ns#"
   xmlns:rdf="http://www.w3.org/1999/02/22-rdf-syntax-ns#"
   xmlns:svg="http://www.w3.org/2000/svg"
   xmlns="http://www.w3.org/2000/svg"
   xmlns:xlink="http://www.w3.org/1999/xlink"
   xmlns:sodipodi="http://sodipodi.sourceforge.net/DTD/sodipodi-0.dtd"
   xmlns:inkscape="http://www.inkscape.org/namespaces/inkscape"
   version="1.1"
   id="svg2"
   width="136.53333"
   height="136.53333"
   viewBox="0 0 136.53333 136.53333"
   sodipodi:docname="pinegrow.svg"
   inkscape:version="1.0.2 (e86c870879, 2021-01-15)">
  <metadata
     id="metadata8">
    <rdf:RDF>
      <cc:Work
         rdf:about="">
        <dc:format>image/svg+xml</dc:format>
        <dc:type
           rdf:resource="http://purl.org/dc/dcmitype/StillImage" />
        <dc:title></dc:title>
      </cc:Work>
    </rdf:RDF>
  </metadata>
  <defs
     id="defs6">
    <linearGradient
       inkscape:collect="always"
       id="linearGradient4313">
      <stop
         style="stop-color:#0a95ef;stop-opacity:1"
         offset="0"
         id="stop4315" />
      <stop
         style="stop-color:#0bdfd4;stop-opacity:1"
         offset="1"
         id="stop4317" />
    </linearGradient>
    <linearGradient
       inkscape:collect="always"
       xlink:href="#linearGradient4313"
       id="linearGradient4319"
       x1="66.280823"
       y1="128.61551"
       x2="64.943542"
       y2="16.578243"
       gradientUnits="userSpaceOnUse"
       gradientTransform="matrix(0.96111005,0,0,0.96111005,2.2110748,2.0329508)" />
    <filter
       filterUnits="objectBoundingBox"
       y="0%"
       x="0%"
       height="100%"
       width="100%"
       id="alpha">
      <feColorMatrix
         id="feColorMatrix823"
         values="0 0 0 0 1 0 0 0 0 1 0 0 0 0 1 0 0 0 1 0"
         type="matrix"
         in="SourceGraphic" />
    </filter>
    <mask
       id="mask0">
      <g
         id="g828"
         filter="url(#alpha)">
        <rect
           id="rect826"
           style="fill:rgb(0%,0%,0%);fill-opacity:0.2"
           y="0"
           x="0"
           height="384"
           width="384" />
      </g>
    </mask>
    <clipPath
       id="clip1">
      <rect
         id="rect831"
         y="0"
         x="0"
         height="384"
         width="384" />
    </clipPath>
    <g
       clip-path="url(#clip1)"
       id="surface5">
      <path
         id="path834"
         d="M 128 64 C 114.367188 64.023438 101.386719 69.839844 92.296875 80 L 80 80 C 53.492188 80.003906 32.003906 101.492188 32 128 L 32 232 C 32.003906 258.507812 53.492188 279.996094 80 280 L 86.484375 280 C 95.050781 294.832031 110.871094 303.980469 128 304 L 130.8125 304 C 137.585938 323.152344 155.683594 335.96875 176 336 L 208 336 C 228.320312 335.976562 246.429688 323.160156 253.203125 304 L 256 304 C 273.125 303.972656 288.9375 294.828125 297.5 280 L 304 280 C 330.507812 279.996094 351.996094 258.507812 352 232 L 352 128 C 351.996094 101.492188 330.507812 80.003906 304 80 L 291.703125 80 C 282.613281 69.839844 269.632812 64.023438 256 64 L 224 64 C 212.183594 64.019531 200.789062 68.398438 192 76.296875 C 183.210938 68.398438 171.816406 64.019531 160 64 Z M 128 64"
         style="fill:rgb(0%,0%,0%)" />
    </g>
    <mask
       id="mask1">
      <g
         id="g839"
         filter="url(#alpha)">
        <rect
           id="rect837"
           style="fill:rgb(0%,0%,0%);fill-opacity:0.2"
           y="0"
           x="0"
           height="384"
           width="384" />
      </g>
    </mask>
    <clipPath
       id="clip2">
      <rect
         id="rect842"
         y="0"
         x="0"
         height="384"
         width="384" />
    </clipPath>
    <g
       clip-path="url(#clip2)"
       id="surface8">
      <path
         id="path845"
         d="M 80 128 C 80 136 80 144 80 152 C 90.667969 152 101.332031 152 112 152 C 112 144 112 136 112 128 C 101.332031 128 90.667969 128 80 128 Z M 80 128"
         style="fill:rgb(0%,0%,0%)" />
      <path
         id="path847-8"
         d="M 80 168 C 80 176 80 184 80 192 C 90.667969 192 101.332031 192 112 192 C 112 184 112 176 112 168 C 101.332031 168 90.667969 168 80 168 Z M 80 168"
         style="fill:rgb(0%,0%,0%)" />
      <path
         id="path849-7"
         d="M 80 208 C 80 216 80 224 80 232 C 90.667969 232 101.332031 232 112 232 C 112 224 112 216 112 208 C 101.332031 208 90.667969 208 80 208 Z M 80 208"
         style="fill:rgb(0%,0%,0%)" />
      <path
         id="path851"
         d="M 128 112 C 128 120 128 128 128 136 C 138.667969 136 149.332031 136 160 136 C 160 128 160 120 160 112 C 149.332031 112 138.667969 112 128 112 Z M 128 112"
         style="fill:rgb(0%,0%,0%)" />
      <path
         id="path853"
         d="M 128 152 C 128 160 128 168 128 176 C 138.667969 176 149.332031 176 160 176 C 160 168 160 160 160 152 C 149.332031 152 138.667969 152 128 152 Z M 128 152"
         style="fill:rgb(0%,0%,0%)" />
      <path
         id="path855"
         d="M 128 192 C 128 200 128 208 128 216 C 138.667969 216 149.332031 216 160 216 C 160 208 160 200 160 192 C 149.332031 192 138.667969 192 128 192 Z M 128 192"
         style="fill:rgb(0%,0%,0%)" />
      <path
         id="path857"
         d="M 128 232 C 128 240 128 248 128 256 C 138.667969 256 149.332031 256 160 256 C 160 248 160 240 160 232 C 149.332031 232 138.667969 232 128 232 Z M 128 232"
         style="fill:rgb(0%,0%,0%)" />
      <path
         id="path859"
         d="M 176 144 C 176 152 176 160 176 168 C 186.667969 168 197.332031 168 208 168 C 208 160 208 152 208 144 C 197.332031 144 186.667969 144 176 144 Z M 176 144"
         style="fill:rgb(0%,0%,0%)" />
      <path
         id="path861"
         d="M 176 184 C 176 192 176 200 176 208 C 186.667969 208 197.332031 208 208 208 C 208 200 208 192 208 184 C 197.332031 184 186.667969 184 176 184 Z M 176 184"
         style="fill:rgb(0%,0%,0%)" />
      <path
         id="path863"
         d="M 176 224 C 176 232 176 240 176 248 C 186.667969 248 197.332031 248 208 248 C 208 240 208 232 208 224 C 197.332031 224 186.667969 224 176 224 Z M 176 224"
         style="fill:rgb(0%,0%,0%)" />
      <path
         id="path865"
         d="M 176 264 C 176 272 176 280 176 288 C 186.667969 288 197.332031 288 208 288 C 208 280 208 272 208 264 C 197.332031 264 186.667969 264 176 264 Z M 176 264"
         style="fill:rgb(0%,0%,0%)" />
      <path
         id="path867"
         d="M 304 128 C 304 136 304 144 304 152 C 293.332031 152 282.667969 152 272 152 C 272 144 272 136 272 128 C 282.667969 128 293.332031 128 304 128 Z M 304 128"
         style="fill:rgb(0%,0%,0%)" />
      <path
         id="path869"
         d="M 304 168 C 304 176 304 184 304 192 C 293.332031 192 282.667969 192 272 192 C 272 184 272 176 272 168 C 282.667969 168 293.332031 168 304 168 Z M 304 168"
         style="fill:rgb(0%,0%,0%)" />
      <path
         id="path871"
         d="M 304 208 C 304 216 304 224 304 232 C 293.332031 232 282.667969 232 272 232 C 272 224 272 216 272 208 C 282.667969 208 293.332031 208 304 208 Z M 304 208"
         style="fill:rgb(0%,0%,0%)" />
      <path
         id="path873"
         d="M 256 112 C 256 120 256 128 256 136 C 245.332031 136 234.667969 136 224 136 C 224 128 224 120 224 112 C 234.667969 112 245.332031 112 256 112 Z M 256 112"
         style="fill:rgb(0%,0%,0%)" />
      <path
         id="path875"
         d="M 256 152 C 256 160 256 168 256 176 C 245.332031 176 234.667969 176 224 176 C 224 168 224 160 224 152 C 234.667969 152 245.332031 152 256 152 Z M 256 152"
         style="fill:rgb(0%,0%,0%)" />
      <path
         id="path877"
         d="M 256 192 C 256 200 256 208 256 216 C 245.332031 216 234.667969 216 224 216 C 224 208 224 200 224 192 C 234.667969 192 245.332031 192 256 192 Z M 256 192"
         style="fill:rgb(0%,0%,0%)" />
      <path
         id="path879"
         d="M 256 232 C 256 240 256 248 256 256 C 245.332031 256 234.667969 256 224 256 C 224 248 224 240 224 232 C 234.667969 232 245.332031 232 256 232 Z M 256 232"
         style="fill:rgb(0%,0%,0%)" />
    </g>
    <mask
       id="mask2">
      <g
         id="g884"
         filter="url(#alpha)">
        <rect
           id="rect882"
           style="fill:rgb(0%,0%,0%);fill-opacity:0.290196"
           y="0"
           x="0"
           height="384"
           width="384" />
      </g>
    </mask>
    <clipPath
       id="clip3">
      <rect
         id="rect887"
         y="0"
         x="0"
         height="384"
         width="384" />
    </clipPath>
    <g
       clip-path="url(#clip3)"
       id="surface11">
      <path
         id="path890"
         d="M 128 56 C 114.367188 56.023438 101.386719 61.839844 92.296875 72 L 80 72 C 53.492188 72.003906 32.003906 93.492188 32 120 L 32 128 C 32.003906 101.492188 53.492188 80.003906 80 80 L 92.296875 80 C 101.386719 69.839844 114.367188 64.023438 128 64 L 160 64 C 171.816406 64.019531 183.210938 68.398438 192 76.296875 C 200.789062 68.398438 212.183594 64.019531 224 64 L 256 64 C 269.632812 64.023438 282.613281 69.839844 291.703125 80 L 304 80 C 330.507812 80.003906 351.996094 101.492188 352 128 L 352 120 C 351.996094 93.492188 330.507812 72.003906 304 72 L 291.703125 72 C 282.613281 61.839844 269.632812 56.023438 256 56 L 224 56 C 212.183594 56.019531 200.789062 60.398438 192 68.296875 C 183.210938 60.398438 171.816406 56.019531 160 56 Z M 128 56"
         style="fill:rgb(100.000%,100.000%,100.000%)" />
    </g>
    <filter
       filterUnits="objectBoundingBox"
       y="0%"
       x="0%"
       height="100%"
       width="100%"
       id="alpha-0">
      <feColorMatrix
         id="feColorMatrix864"
         values="0 0 0 0 1 0 0 0 0 1 0 0 0 0 1 0 0 0 1 0"
         type="matrix"
         in="SourceGraphic" />
    </filter>
    <mask
       id="mask0-0">
      <g
         style="filter:url(#alpha-0)"
         id="g869"
         filter="url(#alpha)">
        <rect
           id="rect867"
           style="fill:rgb(0%,0%,0%);fill-opacity:0.301961"
           y="0"
           x="0"
           height="384"
           width="384" />
      </g>
    </mask>
    <clipPath
       id="clip1-5">
      <rect
         id="rect872"
         y="0"
         x="0"
         height="384"
         width="384" />
    </clipPath>
    <g
       clip-path="url(#clip1-5)"
       id="surface5-3">
      <path
         id="path875-4"
         d="M 168.203125 339.898438 C 138.5625 336.339844 110.464844 323.269531 78.152344 298.019531 C 68.023438 290.105469 56.875 280.476562 55.933594 278.832031 C 54.523438 276.375 54.855469 273.503906 56.765625 271.59375 C 59.730469 268.625 62.039062 269.203125 74.238281 275.964844 C 112.203125 297.007812 136.375 306.730469 162.863281 311.605469 C 172.945312 313.460938 204.023438 313.476562 215.898438 311.632812 C 240.496094 307.8125 258.472656 302.875 283.027344 293.203125 C 297.113281 287.652344 298.8125 287.46875 302.335938 291.148438 C 304.636719 293.550781 304.988281 297.324219 303.167969 300.101562 C 301.621094 302.460938 292.773438 308.617188 282.78125 314.289062 C 247.457031 334.335938 203.566406 344.144531 168.203125 339.898438 Z M 309.863281 315.40625 C 309.082031 314.625 308.441406 313.199219 308.441406 312.242188 C 308.441406 311.285156 310.171875 305.277344 312.289062 298.894531 C 316.761719 285.398438 317.648438 280.578125 315.960938 278.890625 C 314.144531 277.074219 308.707031 276.664062 299.542969 277.652344 C 283.625 279.367188 281.480469 279.402344 279.933594 278.003906 C 277.792969 276.066406 278.070312 271.980469 280.5 269.703125 C 283.097656 267.269531 289.441406 263.777344 294.308594 262.101562 C 304.0625 258.746094 324.144531 258.257812 330.824219 261.214844 C 335.714844 263.378906 336.578125 265.296875 336.453125 273.738281 C 336.25 287.535156 330.304688 302.582031 321.390625 311.855469 C 317.144531 316.273438 316.3125 316.832031 313.949219 316.832031 C 312.238281 316.832031 310.78125 316.324219 309.863281 315.40625 Z M 145.394531 262.058594 C 133.753906 259.601562 122.777344 253.003906 116.554688 244.730469 C 112.25 239.003906 110.277344 235.027344 107.929688 227.355469 C 106.164062 221.574219 106.015625 220.109375 106.003906 208.628906 C 105.992188 194.035156 107.039062 189.015625 112.351562 178.292969 C 121.636719 159.539062 141.347656 147.578125 172.105469 142.042969 C 179.699219 140.675781 201.4375 138.171875 205.800781 138.160156 C 211.523438 138.144531 211.628906 137.953125 211.628906 127.257812 C 211.628906 112.722656 208.964844 105.179688 202.21875 100.582031 C 197.234375 97.191406 192.847656 95.878906 186.429688 95.863281 C 177.1875 95.839844 169.660156 98.976562 163.726562 105.316406 C 160.128906 109.167969 158.566406 111.875 157.105469 116.789062 C 156.554688 118.644531 155.441406 121.003906 154.628906 122.039062 C 153.367188 123.640625 152.605469 123.914062 149.410156 123.914062 C 147.355469 123.914062 142.28125 123.441406 138.140625 122.859375 C 134 122.277344 127.5 121.453125 123.699219 121.03125 C 115.453125 120.109375 113.839844 119.566406 112.28125 117.191406 C 111.175781 115.503906 111.179688 115.046875 112.355469 110.21875 C 115.414062 97.648438 119.929688 89.609375 129.050781 80.492188 C 139.480469 70.066406 150.589844 64.539062 168.367188 60.941406 C 175.824219 59.429688 179.25 59.136719 189.347656 59.136719 C 215.1875 59.136719 234.644531 65.707031 247.269531 78.699219 C 254.589844 86.230469 258.320312 94.433594 260.113281 106.953125 C 260.660156 110.769531 261.113281 129.476562 261.390625 159.507812 L 261.816406 206.136719 L 264.125 211.472656 C 265.390625 214.410156 268.234375 219.210938 270.441406 222.144531 C 275.761719 229.210938 276.867188 231.585938 275.992188 234.074219 C 275.34375 235.921875 262.523438 247.6875 250.914062 257.089844 C 246.195312 260.914062 245.398438 261.304688 242.328125 261.304688 C 239.074219 261.304688 238.734375 261.097656 233.464844 255.929688 C 230.449219 252.972656 225.878906 247.6875 223.308594 244.183594 C 220.734375 240.679688 218.242188 237.8125 217.769531 237.8125 C 217.292969 237.8125 215.476562 239.292969 213.734375 241.105469 C 206.328125 248.78125 196.613281 255.484375 187.953125 258.890625 C 177.398438 263.042969 157.195312 264.546875 145.394531 262.058594 Z M 184.847656 228.195312 C 194.207031 225.757812 200.683594 219.890625 205.90625 209.121094 C 210.675781 199.285156 211.722656 193.347656 211.46875 177.617188 L 211.269531 165.558594 L 202.730469 165.707031 C 190.527344 165.921875 183.679688 167.304688 175.738281 171.167969 C 161.984375 177.859375 156.082031 188.484375 157.027344 204.847656 C 157.523438 213.410156 159.796875 218.695312 165.050781 223.496094 C 170.800781 228.753906 177.027344 230.230469 184.847656 228.195312 Z M 184.847656 228.195312"
         style="fill:rgb(0%,0%,0%)" />
    </g>
    <mask
       id="mask1-7">
      <g
         style="filter:url(#alpha-0)"
         id="g880"
         filter="url(#alpha)">
        <rect
           id="rect878"
           style="fill:rgb(0%,0%,0%);fill-opacity:0.14902"
           y="0"
           x="0"
           height="384"
           width="384" />
      </g>
    </mask>
    <clipPath
       id="clip2-3">
      <rect
         id="rect883"
         y="0"
         x="0"
         height="384"
         width="384" />
    </clipPath>
    <g
       clip-path="url(#clip2-3)"
       id="surface8-2">
      <path
         id="path886"
         d="M 189.347656 51.636719 C 185.855469 51.636719 183.191406 51.675781 180.855469 51.785156 C 203.476562 52.8125 220.726562 59.320312 232.269531 71.199219 C 239.589844 78.730469 243.320312 86.933594 245.113281 99.453125 C 245.660156 103.269531 246.113281 121.976562 246.390625 152.007812 L 246.820312 198.636719 L 249.125 203.976562 C 250.394531 206.910156 253.234375 211.714844 255.441406 214.644531 C 260.761719 221.710938 261.867188 224.085938 260.996094 226.574219 C 260.34375 228.421875 247.527344 240.1875 235.917969 249.589844 C 235.660156 249.796875 235.457031 249.957031 235.222656 250.144531 C 238.863281 253.648438 239.480469 253.804688 242.328125 253.804688 C 245.398438 253.804688 246.195312 253.414062 250.917969 249.589844 C 262.527344 240.1875 275.34375 228.421875 275.996094 226.574219 C 276.867188 224.085938 275.761719 221.710938 270.441406 214.644531 C 268.234375 211.714844 265.394531 206.910156 264.125 203.976562 L 261.820312 198.636719 L 261.390625 152.007812 C 261.113281 121.976562 260.660156 103.269531 260.113281 99.453125 C 258.320312 86.933594 254.589844 78.730469 247.269531 71.199219 C 234.640625 58.203125 215.1875 51.636719 189.347656 51.636719 Z M 189.347656 51.636719"
         style="fill:rgb(0%,0%,0%)" />
    </g>
    <radialGradient
       inkscape:collect="always"
       xlink:href="#linearGradient929"
       id="radialGradient935-3"
       gradientUnits="userSpaceOnUse"
       gradientTransform="matrix(1.3408242,0,0,1.3408242,-187.37684,-130.79009)"
       cx="190.85039"
       cy="148.92816"
       fx="190.85039"
       fy="148.92816"
       r="53.835484" />
    <linearGradient
       inkscape:collect="always"
       id="linearGradient929">
      <stop
         style="stop-color:#000000;stop-opacity:1;"
         offset="0"
         id="stop925" />
      <stop
         style="stop-color:#000000;stop-opacity:0.74117647;"
         offset="0.27787876"
         id="stop961" />
      <stop
         style="stop-color:#000000;stop-opacity:0.2627451;"
         offset="0.58380306"
         id="stop963" />
      <stop
         style="stop-color:#000000;stop-opacity:0.21568627;"
         offset="0.62281501"
         id="stop967" />
      <stop
         style="stop-color:#000000;stop-opacity:0.17254902;"
         offset="0.66894341"
         id="stop971" />
      <stop
         style="stop-color:#000000;stop-opacity:0.13333333;"
         offset="0.70968169"
         id="stop975" />
      <stop
         style="stop-color:#000000;stop-opacity:0.09019608;"
         offset="0.76298833"
         id="stop979" />
      <stop
         style="stop-color:#000000;stop-opacity:0.06666667;"
         offset="0.79677397"
         id="stop977" />
      <stop
         style="stop-color:#000000;stop-opacity:0.03137255;"
         offset="0.86606854"
         id="stop981" />
      <stop
         style="stop-color:#000000;stop-opacity:0.02745098;"
         offset="0.88822615"
         id="stop947" />
      <stop
         style="stop-color:#000000;stop-opacity:0.02352941;"
         offset="0.90482414"
         id="stop983" />
      <stop
         style="stop-color:#000000;stop-opacity:0.01960784;"
         offset="0.91823369"
         id="stop987" />
      <stop
         style="stop-color:#000000;stop-opacity:0.01176471;"
         offset="0.94519842"
         id="stop991" />
      <stop
         style="stop-color:#000000;stop-opacity:0;"
         offset="1"
         id="stop927-6" />
    </linearGradient>
    <radialGradient
       inkscape:collect="always"
       xlink:href="#linearGradient929"
       id="radialGradient1005"
       gradientUnits="userSpaceOnUse"
       gradientTransform="matrix(1.4637532,0,0,1.4637532,-209.34175,-147.65995)"
       cx="190.85039"
       cy="148.92816"
       fx="190.85039"
       fy="148.92816"
       r="53.835484" />
    <linearGradient
       inkscape:collect="always"
       xlink:href="#linearGradient1187"
       id="linearGradient1189"
       x1="6.8240833"
       y1="12.498845"
       x2="6.8240833"
       y2="98.78994"
       gradientUnits="userSpaceOnUse"
       gradientTransform="matrix(3.7795276,0,0,3.7795276,4.4294769,2.8938581)" />
    <linearGradient
       inkscape:collect="always"
       id="linearGradient1187">
      <stop
         style="stop-color:#ffffff;stop-opacity:1;"
         offset="0"
         id="stop1183" />
      <stop
         style="stop-color:#45a5ac;stop-opacity:1"
         offset="1"
         id="stop1185" />
    </linearGradient>
  </defs>
  <sodipodi:namedview
     pagecolor="#ffffff"
     bordercolor="#666666"
     borderopacity="1"
     objecttolerance="10"
     gridtolerance="10"
     guidetolerance="10"
     inkscape:pageopacity="0"
     inkscape:pageshadow="2"
     inkscape:window-width="1920"
     inkscape:window-height="1028"
     id="namedview4"
     showgrid="false"
     inkscape:zoom="2.0000001"
     inkscape:cx="-103.66509"
     inkscape:cy="38.733018"
     inkscape:window-x="0"
     inkscape:window-y="24"
     inkscape:window-maximized="1"
     inkscape:current-layer="svg2"
     showguides="false"
     inkscape:document-rotation="0" />
  <circle
     style="opacity:0.429235;fill:url(#radialGradient1005);fill-opacity:1;stroke:none;stroke-width:45.8791;stroke-linecap:round;stroke-linejoin:round;stroke-miterlimit:4;stroke-dasharray:none;stroke-opacity:1"
     id="circle1003"
     cx="70.016151"
     cy="70.334122"
     r="78.801865" />
  <circle
     style="opacity:0.429235;fill:url(#radialGradient935-3);fill-opacity:1;stroke:none;stroke-width:42.0261;stroke-linecap:round;stroke-linejoin:round;stroke-miterlimit:4;stroke-dasharray:none;stroke-opacity:1"
     id="circle938"
     cx="68.520004"
     cy="68.896385"
     r="72.183922" />
  <circle
     style="opacity:0.429235;fill:url(#radialGradient935-3);fill-opacity:1;stroke:none;stroke-width:42.0261;stroke-linecap:round;stroke-linejoin:round;stroke-miterlimit:4;stroke-dasharray:none;stroke-opacity:1"
     id="circle923"
     cx="68.520004"
     cy="68.896385"
     r="72.183922" />
  <circle
     id="path12"
     cx="68.482712"
     cy="67.74012"
     r="61.531731"
     style="fill:url(#linearGradient4319);fill-opacity:1;stroke:#f5f5f5;stroke-width:5.76666;stroke-miterlimit:4;stroke-dasharray:none;stroke-opacity:1" />
  <path
     style="fill:#000000;stroke-width:1.33333337"
     d=""
     id="path849"
     inkscape:connector-curvature="0" />
  <path
     style="fill:#000000;stroke-width:1.33333337"
     d=""
     id="path847"
     inkscape:connector-curvature="0" />
  <g
     id="g940">
    <path
       d="m 104.66572,80.375353 -4.43005,5.336142 c -0.694329,0.849327 -2.342743,1.185558 -3.320885,0.68335 L 83.622489,79.560963 c -0.03288,-0.02116 -0.06108,-0.03742 -0.08954,-0.05012 0.02797,-0.02116 0.05692,-0.03477 0.08954,-0.04785 l 11.283598,-6.056636 c 1.174647,-0.626585 3.543598,-0.626585 4.722614,-0.0068 l 1.231409,0.654965 c 1.54365,0.818771 3.58289,2.454101 4.3711,3.504299 0.33403,0.447598 0.28165,1.79472 -0.56552,2.816534 M 86.037256,102.84651 c -0.687727,0.8384 -2.277238,1.13752 -3.229191,0.62005 l -0.576404,-0.31653 -2.165889,-1.20303 c -0.161575,-0.0808 -0.264227,-0.16592 -0.327534,-0.2205 0.0635,-0.0677 0.163767,-0.14631 0.310035,-0.24238 l 14.608861,-9.012906 z m -25.632643,2.16807 c -1.460682,0 -3.652762,-1.03492 -4.591612,-2.16807 l -3.984635,-4.801222 c -0.253266,-0.31876 -0.364573,-0.65497 -0.303496,-0.95849 0.05692,-0.3035 0.285997,-0.57641 0.64408,-0.761993 l 2.650606,-1.42574 c 0.576404,-0.303496 1.412628,-0.486845 2.30999,-0.486845 0.903912,0 1.79472,0.19646 2.37549,0.515278 L 77.819062,105.01462 Z M 40.966148,84.934212 53.040135,91.414424 c 0.06108,0.03477 0.111345,0.0635 0.152844,0.08511 -0.04112,0.02797 -0.09165,0.05855 -0.152844,0.08512 l -2.646232,1.421367 c -0.325266,0.170343 -0.722718,0.264151 -1.154994,0.264151 -0.827504,0 -1.659363,-0.349304 -2.115685,-0.897362 z M 37.108158,76.912569 45.0796,66.283971 c 0.635331,-0.851505 2.172446,-1.211762 3.124392,-0.713968 l 6.652698,3.421319 c 0.03942,0.01965 0.07181,0.03477 0.09827,0.05182 -0.02646,0.01965 -0.05854,0.04112 -0.09827,0.05461 l -15.325008,8.266224 c -0.884256,0.475975 -2.004317,0.779494 -2.862384,0.779494 -0.06768,0 -0.122302,0 -0.179062,-0.01058 0.06768,-0.281651 0.242354,-0.724857 0.617915,-1.220497 m 12.388382,-16.52598 6.087213,-8.106819 c 0.425696,-0.563281 1.218308,-0.930111 2.023971,-0.930111 0.386457,0 0.753245,0.08084 1.058933,0.244498 l 5.486782,2.923521 h 0.0022 l 8.820779,4.696396 c 0.01058,0 0.01739,0.0068 0.02646,0.01323 0.04785,0.01965 0.08954,0.05182 0.120075,0.07181 -0.03477,0.02116 -0.08084,0.05295 -0.133152,0.07672 l -11.626406,6.231305 c -0.602562,0.316573 -1.515254,0.508754 -2.445369,0.508754 -0.910458,0 -1.759786,-0.170343 -2.34056,-0.465059 l -6.652694,-3.427877 c -0.373304,-0.185612 -0.617919,-0.475978 -0.696472,-0.807878 -0.07427,-0.329688 0.02117,-0.689956 0.268535,-1.028356 M 60.051189,46.476351 c 4.098172,-5.176744 9.161382,-11.087101 10.986675,-12.587072 1.100417,0.775117 3.440976,3.165874 5.449671,5.617784 0.259729,0.314381 0.366803,0.655054 0.301304,0.96287 -0.05692,0.303496 -0.290382,0.56552 -0.644074,0.766375 l -12.838174,6.823 c -1.163728,0.344957 -2.705186,0.307918 -3.386396,-0.05012 -0.154961,-0.08735 -0.238035,-0.189959 -0.270728,-0.353688 -0.05692,-0.251112 0.02381,-0.698702 0.401718,-1.179009 m 25.298601,4.585051 c 0.253266,0.338419 0.349266,0.711746 0.27515,1.052379 -0.07672,0.349267 -0.318766,0.646303 -0.692096,0.849328 l -5.458398,2.923518 c -1.168108,0.633188 -3.532683,0.633188 -4.711695,0.01323 l -0.0042,-0.0068 -8.840429,-4.702949 c -0.05182,-0.02117 -0.09827,-0.04785 -0.139691,-0.07672 0.04112,-0.02117 0.09165,-0.05182 0.139691,-0.08084 l 12.00412,-6.467115 c 0.927927,-0.50216 2.432266,-0.16373 3.065431,0.678984 z m 13.084872,17.438505 -3.521756,-1.877688 c -0.01058,0 -0.01058,0 -0.01323,-0.0091 L 81.264585,59.362355 c -0.0022,-0.0042 -0.0091,-0.0042 -0.01965,-0.0042 -0.04785,-0.03061 -0.09165,-0.05012 -0.124422,-0.07839 0.03288,-0.02117 0.08084,-0.05182 0.135307,-0.08084 l 5.451847,-2.925698 c 0.930116,-0.493489 2.43882,-0.155074 3.071989,0.676834 z M 79.40231,76.659261 c -0.901727,0 -1.753236,-0.170343 -2.33619,-0.475978 L 63.138462,69.021868 c -0.03288,-0.01739 -0.0635,-0.03061 -0.09392,-0.05295 0.03061,-0.0091 0.06104,-0.03061 0.09392,-0.05012 l 11.624206,-6.229124 c 1.174658,-0.624435 3.541413,-0.633181 4.722606,-0.01323 h 0.0091 l 13.66783,7.281498 c 0.04392,0.01323 0.07427,0.03288 0.109153,0.05461 -0.04392,0.02797 -0.09165,0.05182 -0.139691,0.08084 l -11.285791,6.052271 c -0.600419,0.320919 -1.515254,0.513142 -2.443184,0.513142 m 13.678727,11.988846 c 0.109191,0.0652 0.203112,0.122305 0.266419,0.168075 -0.06104,0.05461 -0.141921,0.122306 -0.257612,0.192114 l -15.012779,9.274908 c -1.08731,0.67469 -3.351459,0.72709 -4.473702,0.10481 L 61.31797,91.627873 c -0.07015,-0.03742 -0.131037,-0.07015 -0.176807,-0.106923 0.05012,-0.03061 0.106923,-0.0635 0.176807,-0.107036 l 15.805345,-8.469249 c 1.181201,-0.633181 3.589444,-0.648446 4.779379,-0.04112 l 4.938762,2.539253 z M 41.302959,80.840012 c -0.05181,-0.01739 -0.10693,-0.04785 -0.144095,-0.07672 0.04618,-0.02797 0.09607,-0.05862 0.152822,-0.09396 l 15.329379,-8.25747 c 1.174651,-0.635324 3.58944,-0.657196 4.772822,-0.04392 l 13.929842,7.163604 c 0.03477,0.01323 0.0635,0.02797 0.09396,0.05012 -0.03061,0.0068 -0.05854,0.02646 -0.09396,0.05012 l -15.798792,8.467062 c -1.179016,0.637554 -3.547968,0.637554 -4.724795,0 z M 108.2426,75.29865 c -0.63533,-0.842774 -1.71831,-1.851488 -2.89513,-2.770681 0,-1.080767 -0.72709,-2.052362 -1.04802,-2.486853 L 92.786592,54.696464 c -0.83622,-1.106963 -2.061097,-1.886422 -3.440968,-2.22266 0.15719,-1.275085 -0.179074,-2.59166 -0.986888,-3.672413 L 83.991942,42.98217 c -0.840586,-1.126617 -2.080732,-1.901703 -3.478092,-2.242311 0.120076,-1.26417 -0.251112,-2.56108 -1.122244,-3.62001 -5.892888,-7.185441 -7.83171,-7.185441 -8.46271,-7.185441 -0.908269,0 -2.58946,0 -13.825032,14.207128 -0.87335,1.109144 -1.275084,2.421351 -1.187754,3.672409 -1.33621,0.360264 -2.526149,1.122255 -3.342716,2.211749 l -6.080655,8.104634 c -0.807878,1.08294 -1.137536,2.384224 -0.984696,3.652758 -1.382075,0.351534 -2.602575,1.128798 -3.438801,2.246676 l -7.971447,10.626414 c -1.135348,1.513073 -1.609136,3.192072 -1.301285,4.587239 0.07016,0.312189 0.185594,0.589531 0.323158,0.849328 -0.07428,1.152816 0.768513,2.192103 1.174645,2.678986 l 9.936473,11.995378 c 0.882077,1.058929 2.1528,1.799091 3.558879,2.109131 -0.09827,1.25325 0.285997,2.52615 1.152809,3.565422 l 3.980273,4.8034 c 1.663714,2.01087 4.879801,3.51957 7.482372,3.51957 h 21.036677 c 1.930088,0 2.8209,-0.64193 3.231368,-1.34494 1.676817,-0.17246 3.231382,-0.93666 4.26192,-2.1659 l 9.521635,-11.473563 c 0.711742,-0.858063 1.779441,-2.375494 1.927911,-3.814322 1.07421,-0.384299 2.04799,-1.002161 2.75104,-1.851489 l 4.41912,-5.342687 c 1.85585,-2.233576 2.15279,-5.515166 0.68772,-7.473642"
       style="clip-rule:evenodd;fill:#003373;fill-opacity:0.114572;fill-rule:nonzero;stroke-width:2.18336;stroke-linejoin:round;stroke-miterlimit:1.41421"
       id="path1191" />
    <path
       d="m 102.18237,78.407142 -4.430049,5.336141 c -0.694329,0.849328 -2.342744,1.185558 -3.320886,0.68335 L 81.139139,77.592752 c -0.03288,-0.02117 -0.06108,-0.03742 -0.08954,-0.05012 0.02797,-0.02116 0.05692,-0.03477 0.08954,-0.04785 l 11.283598,-6.056636 c 1.174647,-0.626585 3.543598,-0.626585 4.722615,-0.0068 l 1.231411,0.654966 c 1.543642,0.81877 3.582887,2.4541 4.371097,3.504298 0.33403,0.447598 0.28165,1.79472 -0.56552,2.816535 M 83.553906,100.87829 c -0.687727,0.83841 -2.277237,1.13753 -3.229191,0.62006 l -0.576404,-0.31653 -2.165889,-1.203032 c -0.161575,-0.0808 -0.264227,-0.16593 -0.327534,-0.2205 0.0635,-0.0677 0.163767,-0.14631 0.310035,-0.24238 l 14.608861,-9.012906 z m -25.632643,2.16808 c -1.460682,0 -3.652762,-1.03492 -4.591612,-2.16808 l -3.984635,-4.80121 c -0.253266,-0.318766 -0.364573,-0.65497 -0.303496,-0.958496 0.05692,-0.303496 0.285997,-0.576405 0.64408,-0.761991 l 2.650606,-1.42574 c 0.576404,-0.303496 1.412629,-0.486844 2.30999,-0.486844 0.903912,0 1.79472,0.19646 2.37549,0.515278 L 75.335712,103.04641 Z M 38.482799,82.966 50.556785,89.446212 c 0.06108,0.03477 0.111345,0.0635 0.152844,0.08512 -0.04112,0.02797 -0.09165,0.05854 -0.152844,0.08512 l -2.646232,1.421367 c -0.325266,0.170343 -0.722718,0.264151 -1.154994,0.264151 -0.827504,0 -1.659363,-0.349304 -2.115685,-0.897362 z M 34.62481,74.944357 42.59625,64.315759 c 0.635331,-0.851505 2.172446,-1.211762 3.124392,-0.713968 l 6.652698,3.421319 c 0.03942,0.01965 0.07181,0.03477 0.09827,0.05182 -0.02646,0.01965 -0.05854,0.04112 -0.09827,0.05461 l -15.325007,8.266223 c -0.884256,0.475975 -2.004316,0.779494 -2.862383,0.779494 -0.06768,0 -0.122302,0 -0.179063,-0.01058 0.06768,-0.28165 0.242355,-0.724856 0.617915,-1.220496 M 47.013183,58.4182 53.100396,50.311382 c 0.425696,-0.563282 1.218308,-0.930112 2.023971,-0.930112 0.386457,0 0.753245,0.08084 1.058933,0.244498 l 5.486782,2.923521 h 0.0022 l 8.820779,4.696396 c 0.01058,0 0.01739,0.0068 0.02646,0.01323 0.04785,0.01965 0.08954,0.05182 0.120075,0.07181 -0.03477,0.02117 -0.08084,0.05295 -0.133152,0.07672 l -11.626406,6.231306 c -0.602562,0.316573 -1.515254,0.508755 -2.445369,0.508755 -0.910458,0 -1.759786,-0.170344 -2.34056,-0.46506 L 47.441415,60.25457 c -0.373304,-0.185613 -0.617919,-0.475979 -0.696472,-0.807878 -0.07427,-0.329688 0.02117,-0.689957 0.268535,-1.028357 M 57.567839,44.508139 c 4.098172,-5.176744 9.161382,-11.087101 10.986675,-12.587072 1.100417,0.775118 3.440976,3.165875 5.449671,5.617785 0.259729,0.314381 0.366803,0.655052 0.301304,0.962868 -0.05692,0.303496 -0.290382,0.56552 -0.644073,0.766375 l -12.838175,6.823001 c -1.163728,0.344958 -2.705186,0.307918 -3.386396,-0.05012 -0.154961,-0.08734 -0.238035,-0.189959 -0.270728,-0.353688 -0.05692,-0.251112 0.02381,-0.698702 0.401719,-1.179008 m 25.2986,4.585051 c 0.253266,0.338418 0.349266,0.711745 0.27515,1.052379 -0.07672,0.349266 -0.318766,0.646303 -0.692096,0.849328 l -5.458398,2.923517 c -1.168108,0.633188 -3.532682,0.633188 -4.711695,0.01323 l -0.0042,-0.0068 -8.840429,-4.702949 c -0.05182,-0.02117 -0.09827,-0.04785 -0.139691,-0.07672 0.04112,-0.02117 0.09165,-0.05182 0.139691,-0.08084 l 12.00412,-6.467116 c 0.927927,-0.50216 2.432266,-0.163729 3.065431,0.678984 z m 13.084872,17.438505 -3.521756,-1.877688 c -0.01058,0 -0.01058,0 -0.01323,-0.0091 L 78.781235,57.394144 c -0.0022,-0.0042 -0.0091,-0.0042 -0.01965,-0.0042 -0.04785,-0.03061 -0.09165,-0.05012 -0.124422,-0.07839 0.03288,-0.02117 0.08084,-0.05182 0.135307,-0.08084 l 5.451848,-2.925699 c 0.930115,-0.493489 2.438819,-0.155074 3.071988,0.676834 z M 76.91896,74.69105 c -0.901727,0 -1.753236,-0.170344 -2.33619,-0.475979 L 60.655112,67.053656 c -0.03288,-0.01739 -0.0635,-0.03061 -0.09392,-0.05295 0.03061,-0.0091 0.06104,-0.03061 0.09392,-0.05012 l 11.624206,-6.229124 c 1.174658,-0.624434 3.541413,-0.63318 4.722607,-0.01323 h 0.0091 l 13.66783,7.281498 c 0.04392,0.01323 0.07427,0.03288 0.109153,0.05461 -0.04392,0.02797 -0.09165,0.05182 -0.139691,0.08084 l -11.28579,6.052271 c -0.60042,0.32092 -1.515255,0.513143 -2.443185,0.513143 m 13.678726,11.988845 c 0.109191,0.0652 0.203112,0.122306 0.266419,0.168076 -0.06104,0.05461 -0.141921,0.122305 -0.257612,0.192113 L 75.594096,96.31454 c -1.08731,0.674688 -3.351458,0.727088 -4.473702,0.104808 L 58.83462,89.659661 c -0.07015,-0.03742 -0.131036,-0.07015 -0.176807,-0.106923 0.05012,-0.03061 0.106923,-0.0635 0.176807,-0.107036 l 15.805345,-8.469249 c 1.181201,-0.63318 3.589444,-0.648446 4.779379,-0.04112 l 4.938762,2.539253 z M 38.819611,78.871801 c -0.05181,-0.01739 -0.106931,-0.04785 -0.144095,-0.07672 0.04618,-0.02797 0.09606,-0.05862 0.152821,-0.09396 l 15.329378,-8.25747 c 1.174651,-0.635324 3.58944,-0.657196 4.772822,-0.04392 l 13.929842,7.163603 c 0.03477,0.01323 0.0635,0.02797 0.09396,0.05012 -0.03061,0.0068 -0.05854,0.02646 -0.09396,0.05012 l -15.798792,8.467072 c -1.179016,0.637553 -3.547968,0.637553 -4.724795,0 z m 66.939639,-5.541362 c -0.63533,-0.842774 -1.71831,-1.851489 -2.89513,-2.770681 0,-1.080768 -0.72709,-2.052363 -1.04802,-2.486854 L 90.303242,52.728253 C 89.467022,51.621289 88.242145,50.84183 86.862274,50.505592 87.019464,49.230508 86.6832,47.913932 85.875386,46.83318 L 81.508592,41.013958 C 80.668006,39.887341 79.42786,39.112254 78.0305,38.771647 c 0.120076,-1.264169 -0.251112,-2.56108 -1.122244,-3.62001 -5.892888,-7.185441 -7.83171,-7.185441 -8.46271,-7.185441 -0.908269,0 -2.58946,0 -13.825031,14.207129 -0.873351,1.109144 -1.275085,2.42135 -1.187755,3.672408 -1.33621,0.360264 -2.526149,1.122255 -3.342716,2.211749 l -6.080655,8.104634 c -0.807878,1.08294 -1.137536,2.384224 -0.984696,3.652758 -1.382075,0.351534 -2.602575,1.128798 -3.438799,2.246676 l -7.971448,10.626414 c -1.135348,1.513074 -1.609135,3.192072 -1.301284,4.587239 0.07016,0.312189 0.185594,0.589531 0.323157,0.849328 -0.07428,1.152817 0.768513,2.192104 1.174646,2.678986 l 9.936471,11.995378 c 0.882077,1.058929 2.1528,1.799093 3.558879,2.109131 -0.09827,1.25325 0.285997,2.526142 1.152809,3.565422 l 3.980273,4.803402 c 1.663714,2.01087 4.879801,3.51957 7.482372,3.51957 h 21.036677 c 1.930088,0 2.8209,-0.64193 3.231368,-1.34494 1.676817,-0.17246 3.231382,-0.93666 4.26192,-2.1659 l 9.521635,-11.473565 c 0.711742,-0.858062 1.779436,-2.375494 1.927911,-3.814322 1.074206,-0.384299 2.04799,-1.002161 2.75104,-1.851489 l 4.41912,-5.342687 c 1.85585,-2.233576 2.15279,-5.515166 0.68772,-7.473641"
       style="clip-rule:evenodd;fill:url(#linearGradient1189);fill-opacity:1;fill-rule:nonzero;stroke-width:2.18336;stroke-linejoin:round;stroke-miterlimit:1.41421"
       id="path22" />
  </g>
</svg>
