<?xml version="1.0" encoding="UTF-8" standalone="no"?>
<svg
   width="128"
   height="128"
   viewBox="0 0 33.866666 33.866668"
   version="1.1"
   id="svg1015"
   inkscape:version="1.1.2 (0a00cf5339, 2022-02-04)"
   sodipodi:docname="shadwen.svg"
   xmlns:inkscape="http://www.inkscape.org/namespaces/inkscape"
   xmlns:sodipodi="http://sodipodi.sourceforge.net/DTD/sodipodi-0.dtd"
   xmlns:xlink="http://www.w3.org/1999/xlink"
   xmlns="http://www.w3.org/2000/svg"
   xmlns:svg="http://www.w3.org/2000/svg"
   xmlns:rdf="http://www.w3.org/1999/02/22-rdf-syntax-ns#"
   xmlns:cc="http://creativecommons.org/ns#"
   xmlns:dc="http://purl.org/dc/elements/1.1/">
  <defs
     id="defs1009">
    <linearGradient
       inkscape:collect="always"
       id="linearGradient873">
      <stop
         style="stop-color:#0b0b0b;stop-opacity:1;"
         offset="0"
         id="stop869" />
      <stop
         style="stop-color:#0b0b0b;stop-opacity:0.85882353;"
         offset="0.68076366"
         id="stop878" />
      <stop
         style="stop-color:#0b0b0b;stop-opacity:0.83137255;"
         offset="0.69925421"
         id="stop888" />
      <stop
         style="stop-color:#0b0b0b;stop-opacity:0.80392157;"
         offset="0.71879315"
         id="stop890" />
      <stop
         style="stop-color:#0b0b0b;stop-opacity:0.78039216;"
         offset="0.73593426"
         id="stop892" />
      <stop
         style="stop-color:#0b0b0b;stop-opacity:0.75686275;"
         offset="0.75022364"
         id="stop894" />
      <stop
         style="stop-color:#0b0b0b;stop-opacity:0.73333333;"
         offset="0.76798755"
         id="stop896" />
      <stop
         style="stop-color:#0b0b0b;stop-opacity:0.08235294;"
         offset="0.9150058"
         id="stop919" />
      <stop
         style="stop-color:#0b0b0b;stop-opacity:0.07058824;"
         offset="0.92246956"
         id="stop917" />
      <stop
         style="stop-color:#0b0b0b;stop-opacity:0.05882353;"
         offset="0.92918676"
         id="stop915" />
      <stop
         style="stop-color:#0b0b0b;stop-opacity:0.04705882;"
         offset="0.93840873"
         id="stop912" />
      <stop
         style="stop-color:#0b0b0b;stop-opacity:0.03137255;"
         offset="0.94760686"
         id="stop910" />
      <stop
         style="stop-color:#0b0b0b;stop-opacity:0.02352941;"
         offset="0.95380515"
         id="stop908" />
      <stop
         style="stop-color:#0b0b0b;stop-opacity:0.01568627;"
         offset="0.95886087"
         id="stop906" />
      <stop
         style="stop-color:#0b0b0b;stop-opacity:0.01176471;"
         offset="0.96356124"
         id="stop904" />
      <stop
         style="stop-color:#0b0b0b;stop-opacity:0.00784314;"
         offset="0.96845078"
         id="stop902" />
      <stop
         style="stop-color:#0b0b0b;stop-opacity:0.00392157;"
         offset="0.97347641"
         id="stop900" />
      <stop
         style="stop-color:#0b0b0b;stop-opacity:0;"
         offset="0.97812337"
         id="stop886" />
      <stop
         style="stop-color:#0b0b0b;stop-opacity:0;"
         offset="0.98456311"
         id="stop884" />
      <stop
         style="stop-color:#0b0b0b;stop-opacity:0;"
         offset="0.98700982"
         id="stop882" />
      <stop
         style="stop-color:#0b0b0b;stop-opacity:0;"
         offset="0.98924524"
         id="stop880" />
      <stop
         style="stop-color:#0b0b0b;stop-opacity:0;"
         offset="1"
         id="stop871" />
    </linearGradient>
    <linearGradient
       inkscape:collect="always"
       xlink:href="#linearGradient895"
       id="linearGradient897"
       x1="2685.9844"
       y1="1088.7905"
       x2="2685.9844"
       y2="1770.3615"
       gradientUnits="userSpaceOnUse"
       gradientTransform="matrix(0.04277854,0,0,0.04277854,-95.919086,-44.867312)" />
    <linearGradient
       inkscape:collect="always"
       id="linearGradient895">
      <stop
         style="stop-color:#f864f7;stop-opacity:1"
         offset="0"
         id="stop891" />
      <stop
         style="stop-color:#8b0bcf;stop-opacity:1"
         offset="1"
         id="stop893" />
    </linearGradient>
    <linearGradient
       inkscape:collect="always"
       id="linearGradient879">
      <stop
         style="stop-color:#e84efc;stop-opacity:1"
         offset="0"
         id="stop875" />
      <stop
         style="stop-color:#b20ce6;stop-opacity:1"
         offset="1"
         id="stop877" />
    </linearGradient>
    <radialGradient
       inkscape:collect="always"
       xlink:href="#linearGradient873"
       id="radialGradient898"
       gradientUnits="userSpaceOnUse"
       cx="60.636452"
       cy="20.456388"
       fx="60.636452"
       fy="20.456388"
       r="17.303919"
       gradientTransform="translate(-43.433354,-3.9448764)" />
    <radialGradient
       inkscape:collect="always"
       xlink:href="#linearGradient879"
       id="radialGradient993"
       cx="16.968126"
       cy="4.670938"
       fx="16.968126"
       fy="4.670938"
       r="13.695572"
       gradientUnits="userSpaceOnUse"
       gradientTransform="matrix(4.8885673,0,0,1.5420669,-65.723642,-0.93384819)" />
    <linearGradient
       inkscape:collect="always"
       xlink:href="#linearGradient1015"
       id="linearGradient1017"
       x1="8.5445814"
       y1="12.298345"
       x2="8.5445814"
       y2="64.360504"
       gradientUnits="userSpaceOnUse"
       gradientTransform="translate(0.82090815,-0.83080726)" />
    <linearGradient
       inkscape:collect="always"
       id="linearGradient1015">
      <stop
         style="stop-color:#ffffff;stop-opacity:1;"
         offset="0"
         id="stop1011" />
      <stop
         style="stop-color:#980eec;stop-opacity:1"
         offset="1"
         id="stop1013" />
    </linearGradient>
  </defs>
  <sodipodi:namedview
     id="base"
     pagecolor="#ffffff"
     bordercolor="#666666"
     borderopacity="1.0"
     inkscape:pageopacity="0.0"
     inkscape:pageshadow="2"
     inkscape:zoom="3.959798"
     inkscape:cx="40.279833"
     inkscape:cy="52.149125"
     inkscape:document-units="mm"
     inkscape:current-layer="layer1"
     inkscape:document-rotation="0"
     showgrid="false"
     units="px"
     inkscape:window-width="1920"
     inkscape:window-height="1026"
     inkscape:window-x="0"
     inkscape:window-y="0"
     inkscape:window-maximized="1"
     inkscape:pagecheckerboard="0" />
  <metadata
     id="metadata1012">
    <rdf:RDF>
      <cc:Work
         rdf:about="">
        <dc:format>image/svg+xml</dc:format>
        <dc:type
           rdf:resource="http://purl.org/dc/dcmitype/StillImage" />
      </cc:Work>
    </rdf:RDF>
  </metadata>
  <g
     inkscape:label="Capa 1"
     inkscape:groupmode="layer"
     id="layer1">
    <circle
       style="opacity:0.309726;fill:url(#radialGradient898);fill-opacity:1;stroke-width:3;stroke-linecap:square;stroke-linejoin:round"
       id="path867"
       cx="17.203098"
       cy="16.511513"
       r="17.303919" />
    <circle
       style="fill:url(#linearGradient897);fill-opacity:1;stroke:#b1aaaa;stroke-width:0.0575565;stroke-linecap:square;stroke-opacity:0.992157"
       id="circle839"
       cx="17.203098"
       cy="16.511513"
       r="15.118138" />
    <circle
       style="fill:url(#radialGradient993);fill-opacity:1;stroke:none;stroke-width:0.0498826;stroke-linecap:square;stroke-opacity:1"
       id="circle839-3"
       cx="17.203098"
       cy="16.511513"
       r="13.102469" />
    <g
       id="g1115"
       style="opacity:0.29179"
       transform="translate(0,-0.32234167)">
      <path
         style="opacity:0.0553441;stroke-width:0.637301"
         d="m 9.3659554,26.448061 c -0.01277,-0.02023 0.238534,-0.326304 0.5578939,-0.680275 2.1771517,-2.413533 2.4921697,-2.819608 2.7396967,-3.531697 0.07814,-0.224756 0.16201,-0.415326 0.18641,-0.423457 0.02421,-0.0082 0.161238,0.140572 0.30412,0.330428 0.142956,0.189854 0.50965,0.643747 0.815046,1.008641 0.308454,0.368632 0.53782,0.679988 0.516214,0.700693 -0.02168,0.02047 -0.190625,0.08775 -0.375945,0.14946 -0.185253,0.06169 -0.522142,0.217915 -0.748446,0.347137 -0.454715,0.259613 -1.070222,0.791148 -1.016626,0.877904 0.02548,0.04097 1.107887,0.05347 4.637392,0.05347 4.095114,0 4.615343,-0.0077 4.703545,-0.06944 0.0548,-0.03818 0.09909,-0.103888 0.09909,-0.145992 0,-0.04213 -0.157216,-0.296906 -0.349495,-0.566223 C 21.24264,24.229392 20.43601,23.095696 19.642314,21.979386 18.094307,19.802144 14.014045,14.086711 13.394777,13.22806 13.188039,12.941434 12.456861,11.920029 11.769848,10.958283 10.688665,9.4446224 10.480396,9.1772349 10.219739,8.9683331 10.054165,8.8356137 9.9186783,8.7077863 9.9186783,8.6842942 c 0,-0.02428 0.1888417,-0.042706 0.4382717,-0.042706 0.397995,0 0.446622,0.00915 0.528705,0.1003705 0.04972,0.055183 2.505618,3.5028433 5.457601,7.6614223 2.951983,4.158581 5.75522,8.10709 6.229438,8.774459 0.474215,0.667364 0.862204,1.234442 0.862204,1.260177 0,0.05692 -14.0338377,0.06694 -14.0689517,0.01012 z M 23.656308,26.116735 C 21.988678,23.819019 11.228279,8.6999942 11.24281,8.6750135 c 0.01084,-0.018306 3.059303,-0.033457 6.77484,-0.033457 5.809009,0 6.755464,0.00891 6.755464,0.063421 0,0.034854 -0.316163,0.360185 -0.70256,0.7229185 -1.796684,1.686536 -2.574383,2.56003 -2.95721,3.321369 -0.09763,0.194214 -0.202403,0.352314 -0.232753,0.351338 -0.08259,-0.0026 -1.391803,-1.780131 -1.344453,-1.825304 0.0224,-0.0212 0.180677,-0.113859 0.352367,-0.206208 0.448151,-0.240952 0.957863,-0.605789 1.174037,-0.840285 0.203993,-0.221336 0.222299,-0.2703476 0.115979,-0.3111366 -0.03888,-0.01493 -1.611481,-0.02707 -3.494837,-0.02707 -3.323468,0 -3.426519,0.0027 -3.501974,0.08589 -0.04271,0.04724 -0.07094,0.1133766 -0.06246,0.1469786 0.0082,0.03358 0.346248,0.536786 0.751062,1.11821 0.784456,1.126692 0.856469,1.229413 1.650485,2.354397 0.282134,0.399748 0.605181,0.858695 0.717921,1.019868 0.112679,0.16119 0.401882,0.574075 0.642655,0.917563 0.473387,0.675431 0.828492,1.193379 1.610145,2.348611 0.276461,0.408492 0.600655,0.880222 0.720531,1.048286 0.247147,0.346475 1.953459,2.832584 3.176951,4.628902 0.449874,0.660432 0.952386,1.397699 1.116809,1.638377 0.334393,0.489493 0.542218,0.727762 0.883109,1.012475 0.127589,0.106585 0.220758,0.211966 0.207052,0.234198 -0.01397,0.02216 -0.395699,0.04039 -0.848693,0.04039 h -0.823714 z"
         id="path8" />
      <path
         style="opacity:0.0553441;stroke-width:0.637301"
         d="m 9.6535181,26.692819 c -0.01277,-0.02023 0.238534,-0.326304 0.5578939,-0.680275 2.177152,-2.413533 2.49217,-2.819608 2.739697,-3.531697 0.07814,-0.224756 0.16201,-0.415326 0.18641,-0.423457 0.02421,-0.0082 0.161238,0.140572 0.30412,0.330428 0.142956,0.189854 0.50965,0.643747 0.815046,1.008641 0.308454,0.368632 0.53782,0.679988 0.516214,0.700693 -0.02168,0.02047 -0.190625,0.08775 -0.375945,0.14946 -0.185253,0.06169 -0.522142,0.217915 -0.748446,0.347137 -0.454715,0.259613 -1.070222,0.791148 -1.016626,0.877904 0.02548,0.04097 1.107887,0.05347 4.637392,0.05347 4.095114,0 4.615343,-0.0077 4.703545,-0.06944 0.0548,-0.03818 0.09909,-0.103888 0.09909,-0.145992 0,-0.04213 -0.157216,-0.296906 -0.349495,-0.566223 C 21.530203,24.47415 20.723573,23.340454 19.929877,22.224144 18.38187,20.046902 14.301608,14.331469 13.68234,13.472818 13.475602,13.186192 12.744424,12.164787 12.057411,11.203041 10.976228,9.6893802 10.767959,9.4219927 10.507302,9.2130909 10.341728,9.0803715 10.206241,8.9525441 10.206241,8.929052 c 0,-0.02428 0.188842,-0.042706 0.438272,-0.042706 0.397995,0 0.446622,0.00915 0.528705,0.1003705 0.04972,0.055183 2.505618,3.5028435 5.457601,7.6614225 2.951983,4.158581 5.75522,8.10709 6.229438,8.774459 0.474215,0.667364 0.862204,1.234442 0.862204,1.260177 0,0.05692 -14.033838,0.06694 -14.068952,0.01012 z M 23.943871,26.361493 C 22.276241,24.063777 11.515842,8.944752 11.530373,8.9197713 c 0.01084,-0.018306 3.059303,-0.033457 6.77484,-0.033457 5.809009,0 6.755464,0.00891 6.755464,0.063421 0,0.034854 -0.316163,0.360185 -0.70256,0.7229185 -1.796684,1.6865362 -2.574383,2.5600302 -2.95721,3.3213692 -0.09763,0.194214 -0.202403,0.352314 -0.232753,0.351338 -0.08259,-0.0026 -1.391803,-1.780131 -1.344453,-1.825304 0.0224,-0.0212 0.180677,-0.113859 0.352367,-0.206208 0.448151,-0.240952 0.957863,-0.605789 1.174037,-0.840285 0.203993,-0.221336 0.222299,-0.270348 0.115979,-0.311137 -0.03888,-0.01493 -1.611481,-0.02707 -3.494837,-0.02707 -3.323468,0 -3.426519,0.0027 -3.501974,0.08589 -0.04271,0.04724 -0.07094,0.113377 -0.06246,0.146979 0.0082,0.03358 0.346248,0.536786 0.751062,1.11821 0.784456,1.126692 0.856469,1.229413 1.650485,2.354397 0.282134,0.399748 0.605181,0.858695 0.717921,1.019868 0.112679,0.16119 0.401882,0.574075 0.642655,0.917563 0.473387,0.675431 0.828492,1.193379 1.610145,2.348611 0.276461,0.408492 0.600655,0.880222 0.720531,1.048286 0.247147,0.346475 1.953459,2.832584 3.176951,4.628902 0.449874,0.660432 0.952386,1.397699 1.116809,1.638377 0.334393,0.489493 0.542218,0.727762 0.883109,1.012475 0.127589,0.106585 0.220758,0.211966 0.207052,0.234198 -0.01397,0.02216 -0.395699,0.04039 -0.848693,0.04039 h -0.823714 z"
         id="path1102" />
      <path
         style="opacity:0.0553441;stroke-width:0.637301"
         d="m 9.8810169,26.881167 c -0.01277,-0.02023 0.2385341,-0.326304 0.5578941,-0.680275 2.177152,-2.413533 2.49217,-2.819608 2.739697,-3.531697 0.07814,-0.224756 0.16201,-0.415326 0.18641,-0.423457 0.02421,-0.0082 0.161238,0.140572 0.30412,0.330428 0.142956,0.189854 0.50965,0.643747 0.815046,1.008641 0.308454,0.368632 0.53782,0.679988 0.516214,0.700693 -0.02168,0.02047 -0.190625,0.08775 -0.375945,0.14946 -0.185253,0.06169 -0.522142,0.217915 -0.748446,0.347137 -0.454715,0.259613 -1.070222,0.791148 -1.016626,0.877904 0.02548,0.04097 1.107887,0.05347 4.637392,0.05347 4.095114,0 4.615343,-0.0077 4.703545,-0.06944 0.0548,-0.03818 0.09909,-0.103888 0.09909,-0.145992 0,-0.04213 -0.157216,-0.296906 -0.349495,-0.566223 C 21.757702,24.662498 20.951072,23.528802 20.157376,22.412492 18.609369,20.23525 14.529107,14.519817 13.909839,13.661166 13.703101,13.37454 12.971923,12.353135 12.28491,11.391389 11.203727,9.8777282 10.995458,9.6103407 10.734801,9.4014389 10.569227,9.2687195 10.43374,9.1408921 10.43374,9.1174 c 0,-0.02428 0.188842,-0.042706 0.438272,-0.042706 0.397995,0 0.446622,0.00915 0.528705,0.1003705 0.04972,0.055183 2.505618,3.5028435 5.457601,7.6614225 2.951983,4.158581 5.75522,8.10709 6.229438,8.774459 0.474215,0.667364 0.862204,1.234442 0.862204,1.260177 0,0.05692 -14.0338382,0.06694 -14.0689522,0.01012 z M 24.17137,26.549841 C 22.50374,24.252125 11.743341,9.1331 11.757872,9.1081193 c 0.01084,-0.018306 3.059303,-0.033457 6.77484,-0.033457 5.809009,0 6.755464,0.00891 6.755464,0.063421 0,0.034854 -0.316163,0.360185 -0.70256,0.7229185 -1.796684,1.6865362 -2.574383,2.5600302 -2.95721,3.3213692 -0.09763,0.194214 -0.202403,0.352314 -0.232753,0.351338 -0.08259,-0.0026 -1.391803,-1.780131 -1.344453,-1.825304 0.0224,-0.0212 0.180677,-0.113859 0.352367,-0.206208 0.448151,-0.240952 0.957863,-0.605789 1.174037,-0.840285 0.203993,-0.221336 0.222299,-0.270348 0.115979,-0.311137 -0.03888,-0.01493 -1.611481,-0.02707 -3.494837,-0.02707 -3.323468,0 -3.426519,0.0027 -3.501974,0.08589 -0.04271,0.04724 -0.07094,0.113377 -0.06246,0.146979 0.0082,0.03358 0.346248,0.536786 0.751062,1.11821 0.784456,1.126692 0.856469,1.229413 1.650485,2.354397 0.282134,0.399748 0.605181,0.858695 0.717921,1.019868 0.112679,0.16119 0.401882,0.574075 0.642655,0.917563 0.473387,0.675431 0.828492,1.193379 1.610145,2.348611 0.276461,0.408492 0.600655,0.880222 0.720531,1.048286 0.247147,0.346475 1.953459,2.832584 3.176951,4.628902 0.449874,0.660432 0.952386,1.397699 1.116809,1.638377 0.334393,0.489493 0.542218,0.727762 0.883109,1.012475 0.127589,0.106585 0.220758,0.211966 0.207052,0.234198 -0.01397,0.02216 -0.395699,0.04039 -0.848693,0.04039 h -0.823714 z"
         id="path1104" />
      <path
         style="opacity:0.0553441;stroke-width:0.637301"
         d="m 10.116737,27.014051 c -0.01277,-0.02023 0.238535,-0.326304 0.557895,-0.680275 2.177152,-2.413533 2.49217,-2.819608 2.739697,-3.531697 0.07814,-0.224756 0.16201,-0.415326 0.18641,-0.423457 0.02421,-0.0082 0.161238,0.140572 0.30412,0.330428 0.142956,0.189854 0.50965,0.643747 0.815046,1.008641 0.308454,0.368632 0.53782,0.679988 0.516214,0.700693 -0.02168,0.02047 -0.190625,0.08775 -0.375945,0.14946 -0.185253,0.06169 -0.522142,0.217915 -0.748446,0.347137 -0.454715,0.259613 -1.070222,0.791148 -1.016626,0.877904 0.02548,0.04097 1.107887,0.05347 4.637392,0.05347 4.095114,0 4.615343,-0.0077 4.703545,-0.06944 0.0548,-0.03818 0.09909,-0.103888 0.09909,-0.145992 0,-0.04213 -0.157216,-0.296906 -0.349495,-0.566223 C 21.993423,24.795382 21.186793,23.661686 20.393097,22.545376 18.84509,20.368134 14.764828,14.652701 14.14556,13.79405 13.938822,13.507424 13.207644,12.486019 12.520631,11.524273 11.439448,10.010613 11.231179,9.7432251 10.970522,9.5343233 10.804948,9.4016039 10.669461,9.2737765 10.669461,9.2502844 c 0,-0.02428 0.188842,-0.042706 0.438272,-0.042706 0.397995,0 0.446622,0.00915 0.528705,0.1003705 0.04972,0.055183 2.505618,3.5028431 5.457601,7.6614221 2.951983,4.158581 5.75522,8.10709 6.229438,8.774459 0.474215,0.667364 0.862204,1.234442 0.862204,1.260177 0,0.05692 -14.033839,0.06694 -14.068953,0.01012 z M 24.407091,26.682725 C 22.739461,24.385009 11.979062,9.2659844 11.993593,9.2410037 c 0.01084,-0.018306 3.059303,-0.033457 6.77484,-0.033457 5.809009,0 6.755464,0.00891 6.755464,0.063421 0,0.034854 -0.316163,0.360185 -0.70256,0.7229185 -1.796684,1.6865358 -2.574383,2.5600298 -2.95721,3.3213688 -0.09763,0.194214 -0.202403,0.352314 -0.232753,0.351338 -0.08259,-0.0026 -1.391803,-1.780131 -1.344453,-1.825304 0.0224,-0.0212 0.180677,-0.113859 0.352367,-0.206208 0.448151,-0.240952 0.957863,-0.605789 1.174037,-0.840285 0.203993,-0.221336 0.222299,-0.270348 0.115979,-0.311137 -0.03888,-0.01493 -1.611481,-0.02707 -3.494837,-0.02707 -3.323468,0 -3.426519,0.0027 -3.501974,0.08589 -0.04271,0.04724 -0.07094,0.113377 -0.06246,0.146979 0.0082,0.03358 0.346248,0.536786 0.751062,1.11821 0.784456,1.126692 0.856469,1.229413 1.650485,2.354397 0.282134,0.399748 0.605181,0.858695 0.717921,1.019868 0.112679,0.16119 0.401882,0.574075 0.642655,0.917563 0.473387,0.675431 0.828492,1.193379 1.610145,2.348611 0.276461,0.408492 0.600655,0.880222 0.720531,1.048286 0.247147,0.346475 1.953459,2.832584 3.176951,4.628902 0.449874,0.660432 0.952386,1.397699 1.116809,1.638377 0.334393,0.489493 0.542218,0.727762 0.883109,1.012475 0.127589,0.106585 0.220758,0.211966 0.207052,0.234198 -0.01397,0.02216 -0.395699,0.04039 -0.848693,0.04039 h -0.823714 z"
         id="path1106" />
      <path
         style="opacity:0.0553441;stroke-width:0.637301"
         d="m 10.274384,27.083707 c -0.01277,-0.02023 0.238535,-0.326304 0.557895,-0.680275 2.177152,-2.413533 2.49217,-2.819608 2.739697,-3.531697 0.07814,-0.224756 0.16201,-0.415326 0.18641,-0.423457 0.02421,-0.0082 0.161238,0.140572 0.30412,0.330428 0.142956,0.189854 0.50965,0.643747 0.815046,1.008641 0.308454,0.368632 0.53782,0.679988 0.516214,0.700693 -0.02168,0.02047 -0.190625,0.08775 -0.375945,0.14946 -0.185253,0.06169 -0.522142,0.217915 -0.748446,0.347137 -0.454715,0.259613 -1.070222,0.791148 -1.016626,0.877904 0.02548,0.04097 1.107887,0.05347 4.637392,0.05347 4.095114,0 4.615343,-0.0077 4.703545,-0.06944 0.0548,-0.03818 0.09909,-0.103888 0.09909,-0.145992 0,-0.04213 -0.157216,-0.296906 -0.349495,-0.566223 C 22.15107,24.865038 21.34444,23.731342 20.550744,22.615032 19.002737,20.43779 14.922475,14.722357 14.303207,13.863706 14.096469,13.57708 13.365291,12.555675 12.678278,11.593929 11.597095,10.080269 11.388826,9.8128809 11.128169,9.6039791 10.962595,9.4712597 10.827108,9.3434323 10.827108,9.3199402 c 0,-0.02428 0.188842,-0.042706 0.438272,-0.042706 0.397995,0 0.446622,0.00915 0.528705,0.1003705 0.04972,0.055183 2.505618,3.5028433 5.457601,7.6614223 2.951983,4.158581 5.75522,8.10709 6.229438,8.774459 0.474215,0.667364 0.862204,1.234442 0.862204,1.260177 0,0.05692 -14.033839,0.06694 -14.068953,0.01012 z M 24.564738,26.752381 C 22.897108,24.454665 12.136709,9.3356402 12.15124,9.3106595 c 0.01084,-0.018306 3.059303,-0.033457 6.77484,-0.033457 5.809009,0 6.755464,0.00891 6.755464,0.063421 0,0.034854 -0.316163,0.360185 -0.70256,0.7229185 -1.796684,1.686536 -2.574383,2.56003 -2.95721,3.321369 -0.09763,0.194214 -0.202403,0.352314 -0.232753,0.351338 -0.08259,-0.0026 -1.391803,-1.780131 -1.344453,-1.825304 0.0224,-0.0212 0.180677,-0.113859 0.352367,-0.206208 0.448151,-0.240952 0.957863,-0.605789 1.174037,-0.840285 0.203993,-0.221336 0.222299,-0.270348 0.115979,-0.311137 -0.03888,-0.01493 -1.611481,-0.02707 -3.494837,-0.02707 -3.323468,0 -3.426519,0.0027 -3.501974,0.08589 -0.04271,0.04724 -0.07094,0.113377 -0.06246,0.146979 0.0082,0.03358 0.346248,0.536786 0.751062,1.11821 0.784456,1.126692 0.856469,1.229413 1.650485,2.354397 0.282134,0.399748 0.605181,0.858695 0.717921,1.019868 0.112679,0.16119 0.401882,0.574075 0.642655,0.917563 0.473387,0.675431 0.828492,1.193379 1.610145,2.348611 0.276461,0.408492 0.600655,0.880222 0.720531,1.048286 0.247147,0.346475 1.953459,2.832584 3.176951,4.628902 0.449874,0.660432 0.952386,1.397699 1.116809,1.638377 0.334393,0.489493 0.542218,0.727762 0.883109,1.012475 0.127589,0.106585 0.220758,0.211966 0.207052,0.234198 -0.01397,0.02216 -0.395699,0.04039 -0.848693,0.04039 h -0.823714 z"
         id="path1108" />
    </g>
    <path
       style="fill:url(#linearGradient1017);fill-opacity:1;stroke-width:0.637301"
       d="m 9.3659554,25.48843 c -0.01277,-0.02023 0.238534,-0.326305 0.5578939,-0.680275 2.1771517,-2.413535 2.4921697,-2.819611 2.7396967,-3.5317 0.07814,-0.224756 0.16201,-0.415323 0.18641,-0.423455 0.02421,-0.0082 0.161238,0.140572 0.30412,0.330428 0.142956,0.189854 0.50965,0.643745 0.815046,1.008639 0.308454,0.368635 0.53782,0.679988 0.516214,0.700694 -0.02168,0.02047 -0.190625,0.08775 -0.375945,0.14946 -0.185253,0.06169 -0.522142,0.217915 -0.748446,0.347139 -0.454715,0.25961 -1.070222,0.791145 -1.016626,0.877902 0.02548,0.04097 1.107887,0.05347 4.637392,0.05347 4.095114,0 4.615343,-0.0077 4.703545,-0.06944 0.0548,-0.03818 0.09909,-0.103887 0.09909,-0.145991 0,-0.04213 -0.157216,-0.296906 -0.349495,-0.566223 C 21.24264,23.269761 20.43601,22.136062 19.642314,21.019752 18.094307,18.842511 14.014045,13.127078 13.394777,12.268429 13.188039,11.981801 12.456861,10.960398 11.769848,9.9986523 10.688665,8.484989 10.480396,8.2176015 10.219739,8.0087021 10.054165,7.8759827 9.9186783,7.7481529 9.9186783,7.7246633 c 0,-0.02428 0.1888417,-0.042706 0.4382717,-0.042706 0.397995,0 0.446622,0.00915 0.528705,0.1003706 0.04972,0.055183 2.505618,3.5028401 5.457601,7.6614221 2.951983,4.158581 5.75522,8.107087 6.229438,8.774459 0.474215,0.667361 0.862204,1.234439 0.862204,1.260174 0,0.05692 -14.0338377,0.06694 -14.0689517,0.01012 z M 23.656308,25.157103 C 21.988678,22.859386 11.228279,7.7403632 11.24281,7.7153801 c 0.01084,-0.018306 3.059303,-0.033457 6.77484,-0.033457 5.809009,0 6.755464,0.00891 6.755464,0.063421 0,0.034854 -0.316163,0.3601827 -0.70256,0.7229162 -1.796684,1.6865357 -2.574383,2.5600297 -2.95721,3.3213687 -0.09763,0.194214 -0.202403,0.352314 -0.232753,0.351338 -0.08259,-0.0026 -1.391803,-1.780131 -1.344453,-1.825301 0.0224,-0.0212 0.180677,-0.11386 0.352367,-0.206209 0.448151,-0.2409517 0.957863,-0.6057873 1.174037,-0.8402823 0.203993,-0.2213352 0.222299,-0.2703499 0.115979,-0.3111364 -0.03888,-0.014934 -1.611481,-0.027074 -3.494837,-0.027074 -3.323468,0 -3.426519,0.00265 -3.501974,0.085894 -0.04271,0.047235 -0.07094,0.1133776 -0.06246,0.146979 0.0082,0.033577 0.346248,0.536786 0.751062,1.1182097 0.784456,1.126694 0.856469,1.229413 1.650485,2.354399 0.282134,0.399748 0.605181,0.858695 0.717921,1.019868 0.112679,0.161166 0.401882,0.574076 0.642655,0.917561 0.473387,0.675434 0.828492,1.193381 1.610145,2.348611 0.276461,0.408492 0.600655,0.880224 0.720531,1.048286 0.247147,0.346475 1.953459,2.832584 3.176951,4.628904 0.449874,0.66043 0.952386,1.397699 1.116809,1.638377 0.334393,0.489491 0.542218,0.72776 0.883109,1.012476 0.127589,0.106585 0.220758,0.211965 0.207052,0.234198 -0.01397,0.02216 -0.395699,0.04039 -0.848693,0.04039 h -0.823714 z"
       id="path10" />
  </g>
</svg>
